<svg width="150" height="39" viewBox="0 0 150 39" fill="none" xmlns="http://www.w3.org/2000/svg">
<path d="M112.854 20.4428C110.823 8.07206 98.7371 7.52055 98.7371 7.52055C89.9163 6.9668 83.515 14.0904 77.3303 20.9719C71.3364 27.6483 65.6848 33.9906 59.2038 31.9359C57.0522 31.3885 55.1604 30.106 53.8567 28.3109C52.5529 26.5158 51.9195 24.3214 52.0663 22.1086C52.1797 20.0351 52.9702 18.0559 54.3169 16.474C55.6636 14.892 57.4923 13.7945 59.5229 13.3494C61.5535 12.9043 63.6742 13.1362 65.5603 14.0096C67.4464 14.883 68.994 16.3497 69.9661 18.1852C70.0239 18.2828 70.1033 18.3658 70.1983 18.4279C70.2932 18.4899 70.4012 18.5294 70.5138 18.5433C70.6264 18.5571 70.7408 18.545 70.8479 18.5078C70.9551 18.4706 71.0524 18.4093 71.1321 18.3287L74.133 15.3223C74.2545 15.2025 74.3306 15.0442 74.3484 14.8746C74.3662 14.705 74.3246 14.5344 74.2307 14.392C72.7767 12.117 70.7332 10.2776 68.3172 9.06903C65.9011 7.86042 63.2026 7.32766 60.5078 7.52728C57.4665 7.65661 54.5416 8.73201 52.1421 10.6031C49.7427 12.4743 47.9886 15.0476 47.1251 17.9633C46.3837 20.2528 46.1943 22.6848 46.5722 25.0612C46.9501 27.4376 47.8848 29.6913 49.2999 31.6386C50.7151 33.5858 52.5708 35.1717 54.7158 36.2669C56.8608 37.362 59.2345 37.9356 61.6436 37.9408C69.6654 37.9408 75.6986 31.2286 81.532 24.7372C87.5596 18.0294 93.2134 11.7398 99.966 13.3988C99.966 13.3988 106.945 15.0802 107.34 21.918C107.539 24.0448 107.015 26.1766 105.853 27.9694C104.69 29.7622 102.956 31.1114 100.932 31.7995C98.9073 32.4876 96.7097 32.4743 94.6937 31.7618C92.6776 31.0493 90.9606 29.6792 89.8198 27.8725C89.76 27.7828 89.681 27.7075 89.5886 27.6519C89.4961 27.5964 89.3925 27.562 89.2852 27.5513C89.1778 27.5406 89.0695 27.5538 88.9678 27.5899C88.8662 27.6261 88.7739 27.6843 88.6975 27.7604L85.9514 30.5022C85.7542 30.6967 85.6352 30.9565 85.6168 31.2326C85.5984 31.5088 85.6819 31.7821 85.8515 32.0009C87.2436 33.8455 89.0452 35.3421 91.1147 36.373C93.1842 37.4039 95.465 37.941 97.7776 37.9419C101.269 37.9403 104.655 36.7479 107.376 34.5623V36.6921C107.376 36.7897 107.395 36.8864 107.432 36.9767C107.47 37.0669 107.525 37.1489 107.594 37.2179C107.663 37.287 107.745 37.3417 107.835 37.379C107.926 37.4163 108.022 37.4354 108.12 37.4353H112.278C112.376 37.4354 112.473 37.4163 112.563 37.379C112.653 37.3417 112.735 37.287 112.805 37.2179C112.874 37.1489 112.928 37.0669 112.966 36.9767C113.003 36.8864 113.022 36.7897 113.022 36.6921V23.9223C113.101 22.7599 113.045 21.5922 112.854 20.4428Z" fill="#F43B4A"/>
<path d="M28.7089 7.39068C26.6165 7.38486 24.5454 7.80953 22.6246 8.63824C20.7038 9.46694 18.9745 10.6819 17.5444 12.2074C16.1143 13.733 15.0141 15.5363 14.3123 17.5052C13.6105 19.474 13.3222 21.5661 13.4654 23.6511C14.3284 35.0019 24.8102 37.413 24.8102 37.413C27.1347 38.0216 29.57 38.0749 31.919 37.5686C34.268 37.0623 36.4646 36.0105 38.331 34.4986C38.4078 34.4341 38.4707 34.3548 38.5161 34.2655C38.5614 34.1761 38.5883 34.0785 38.595 33.9786C38.6017 33.8786 38.5881 33.7783 38.5551 33.6837C38.5221 33.5891 38.4703 33.5022 38.4028 33.4281L35.6174 30.3365C35.4885 30.1971 35.3112 30.112 35.1218 30.0985C34.9323 30.085 34.7447 30.144 34.5973 30.2636C33.097 31.4201 31.2885 32.1089 29.3981 32.2438C27.5078 32.3787 25.6197 31.9537 23.97 31.0219C22.3203 30.0902 20.9825 28.6931 20.1238 27.0056C19.2652 25.3181 18.924 23.4151 19.1428 21.5348C19.1428 21.5348 19.9149 14.382 27.1916 13.1467C29.0167 12.8422 30.8911 13.075 32.586 13.8167C34.281 14.5583 35.723 15.7768 36.7363 17.3234C36.8075 17.436 36.847 17.5656 36.8506 17.6987C36.8543 17.8318 36.822 17.9635 36.7571 18.0798C36.6922 18.1961 36.5972 18.2928 36.4819 18.3597C36.3667 18.4266 36.2355 18.4613 36.1022 18.46H29.9938C29.8959 18.4599 29.799 18.479 29.7085 18.5164C29.618 18.5538 29.5358 18.6086 29.4666 18.6777C29.3974 18.7469 29.3425 18.829 29.3051 18.9193C29.2677 19.0097 29.2485 19.1066 29.2487 19.2044V23.3519C29.2485 23.4496 29.2677 23.5465 29.3051 23.6369C29.3425 23.7272 29.3974 23.8094 29.4666 23.8785C29.5358 23.9476 29.618 24.0025 29.7085 24.0398C29.799 24.0772 29.8959 24.0963 29.9938 24.0962H43.4765C43.5761 24.0963 43.6749 24.0766 43.7668 24.0381C43.8587 23.9996 43.942 23.9431 44.0117 23.872C44.0815 23.8009 44.1363 23.7165 44.1729 23.6239C44.2095 23.5313 44.2273 23.4323 44.225 23.3328C43.8737 12.9371 36.33 7.39068 28.7089 7.39068Z" fill="#F43B4A"/>
<path d="M143.49 20.4831C141.724 19.0394 139.057 16.8591 139.057 15.7124C139.058 15.0117 139.337 14.3399 139.833 13.8444C140.329 13.3489 141.001 13.0701 141.702 13.0692C142.299 13.0769 142.876 13.2823 143.344 13.6531C143.811 14.024 144.141 14.5394 144.284 15.1183C144.319 15.2849 144.411 15.4344 144.542 15.5424C144.674 15.6503 144.839 15.7103 145.01 15.7124H149.211C149.317 15.7118 149.422 15.6889 149.518 15.6454C149.615 15.6019 149.701 15.5386 149.771 15.4596C149.841 15.3807 149.894 15.2878 149.927 15.1871C149.959 15.0864 149.969 14.9801 149.958 14.875C149.765 12.836 148.817 10.9423 147.3 9.56505C145.782 8.18778 143.804 7.42625 141.754 7.4297C134.364 7.55525 133.469 14.8694 133.469 14.8694C132.94 19.1414 136.493 22.0435 139.92 24.8459C141.687 26.2896 144.355 28.4699 144.355 29.6166C144.357 30.2664 144.118 30.8938 143.686 31.379C143.253 31.8641 142.656 32.173 142.01 32.2464C141.364 32.3198 140.713 32.1526 140.182 31.7768C139.652 31.4011 139.278 30.8431 139.134 30.2096C139.097 30.0433 139.006 29.8942 138.873 29.7866C138.741 29.6789 138.577 29.619 138.406 29.6166H134.205C134.099 29.6174 133.995 29.6403 133.898 29.684C133.802 29.7276 133.716 29.7908 133.645 29.8698C133.575 29.9487 133.522 30.0414 133.49 30.1421C133.458 30.2427 133.447 30.3489 133.458 30.454C133.657 32.4911 134.606 34.3818 136.123 35.758C137.64 37.1342 139.615 37.8975 141.664 37.8993C148.93 37.8242 149.948 30.4573 149.948 30.4573C150.471 26.1843 146.916 23.2844 143.49 20.4831Z" fill="#F43B4A"/>
<path d="M121.073 1.05859H116.733C116.373 1.05859 116.08 1.35068 116.08 1.71099V36.7787C116.08 37.139 116.373 37.4311 116.733 37.4311H121.073C121.434 37.4311 121.726 37.139 121.726 36.7787V1.71099C121.726 1.35068 121.434 1.05859 121.073 1.05859Z" fill="#F43B4A"/>
<path d="M129.751 1.05859H125.418C125.056 1.05859 124.762 1.35219 124.762 1.71435V5.57153C124.762 5.93369 125.056 6.22728 125.418 6.22728H129.751C130.114 6.22728 130.408 5.93369 130.408 5.57153V1.71435C130.408 1.35219 130.114 1.05859 129.751 1.05859Z" fill="#F43B4A"/>
<path d="M129.748 9.52734H125.422C125.057 9.52734 124.762 9.82244 124.762 10.1865V36.772C124.762 37.136 125.057 37.4311 125.422 37.4311H129.748C130.112 37.4311 130.408 37.136 130.408 36.772V10.1865C130.408 9.82244 130.112 9.52734 129.748 9.52734Z" fill="#F43B4A"/>
<path d="M8.6424 32.2549C8.53875 32.1318 8.39929 32.0441 8.24341 32.0039C8.08752 31.9637 7.92298 31.9731 7.77266 32.0307C7.56339 32.1015 7.34386 32.1375 7.12289 32.1372C6.27896 32.1372 5.64826 31.6383 5.64826 31.1911V13.776C5.64826 13.578 5.727 13.3882 5.86717 13.2481C6.00734 13.1081 6.19745 13.0295 6.39567 13.0295H10.4111C10.6093 13.0295 10.7994 12.9508 10.9396 12.8108C11.0797 12.6708 11.1585 12.4809 11.1585 12.2829V8.13655C11.1582 7.93875 11.0793 7.74914 10.9392 7.60938C10.799 7.46962 10.6091 7.39112 10.4111 7.39112H6.39455C6.29636 7.39126 6.1991 7.37205 6.10835 7.33459C6.0176 7.29712 5.93515 7.24214 5.86572 7.17279C5.79628 7.10343 5.74124 7.02108 5.70373 6.93043C5.66622 6.83979 5.64699 6.74265 5.64714 6.64457V1.80319C5.64684 1.60529 5.568 1.41557 5.4279 1.27563C5.28779 1.13569 5.09786 1.05694 4.89972 1.05664H0.747415C0.54928 1.05694 0.359343 1.13569 0.21924 1.27563C0.0791366 1.41557 0.000296833 1.60529 0 1.80319V31.1944C0.0747656 33.0092 0.865727 34.7206 2.20001 35.9547C3.53429 37.1887 5.30339 37.8449 7.12064 37.78C8.52499 37.7833 9.90239 37.3951 11.0979 36.6591C11.1886 36.603 11.2663 36.5283 11.3259 36.44C11.3856 36.3517 11.4258 36.2517 11.444 36.1467C11.4621 36.0418 11.4577 35.9341 11.4312 35.8309C11.4046 35.7278 11.3564 35.6314 11.2898 35.5482L8.6424 32.2549Z" fill="#F43B4A"/>
</svg>
